# xmcd
#
# Track frame offsets:
#	150
#	13930
#	29195
#	40175
#	50965
#	61597
#	76407
#	90850
#	102200
#	114270
#	125637
#	139292
#
# Disc length: 2038 seconds
#
# Revision: 1
# Processed by: cddbd v1.4PL0 Copyright (c) Steve Scherf et al.
# Submitted via: CDmax 1.8
#
DISCID=a007f40c
DTITLE=Vernon Oxford - 100% Country
DYEAR=1990
DGENRE=Country
TTITLE0=Will you visit me on Sunday?
TTITLE1=Wild mountain rose
TTITLE2=World of forgotten people
TTITLE3=The key's in the mailbox
TTITLE4=Motel room in Bristol
TTITLE5=I hate myself for loving you
TTITLE6=Storms never last
TTITLE7=Sometimes we all have to cry alone
TTITLE8=Two people together alone
TTITLE9=That's what happened to me yesterday
TTITLE10=God keeps the wildflowers blooming
TTITLE11=Surprise birthday party
EXTD=
EXTT0=
EXTT1=
EXTT2=
EXTT3=
EXTT4=
EXTT5=
EXTT6=
EXTT7=
EXTT8=
EXTT9=
EXTT10=
EXTT11=
PLAYORDER=
